<mxfile host="app.diagrams.net" agent="Mozilla/5.0 (Windows NT 10.0; Win64; x64) AppleWebKit/537.36 (KHTML, like Gecko) Chrome/130.0.0.0 Safari/537.36 Edg/130.0.0.0" version="24.8.4" pages="2">
  <diagram id="j_xEzkOUeqLrLY7O1-Rm" name="Página-2">
    <mxGraphModel dx="1508" dy="665" grid="1" gridSize="10" guides="1" tooltips="1" connect="1" arrows="1" fold="1" page="1" pageScale="1" pageWidth="827" pageHeight="1169" math="0" shadow="0">
      <root>
        <mxCell id="0" />
        <mxCell id="1" parent="0" />
        <mxCell id="4csE3fcNhFdNQlbhWUd2-2" value="7. Recibe" style="ellipse;whiteSpace=wrap;html=1;aspect=fixed;" vertex="1" parent="1">
          <mxGeometry x="100" y="60" width="80" height="80" as="geometry" />
        </mxCell>
        <mxCell id="4csE3fcNhFdNQlbhWUd2-8" style="edgeStyle=orthogonalEdgeStyle;shape=connector;curved=1;rounded=0;orthogonalLoop=1;jettySize=auto;html=1;exitX=0;exitY=1;exitDx=0;exitDy=0;entryX=0.75;entryY=0;entryDx=0;entryDy=0;strokeColor=default;align=center;verticalAlign=middle;fontFamily=Helvetica;fontSize=11;fontColor=default;labelBackgroundColor=default;endArrow=classic;" edge="1" parent="1" source="4csE3fcNhFdNQlbhWUd2-3" target="4csE3fcNhFdNQlbhWUd2-4">
          <mxGeometry relative="1" as="geometry" />
        </mxCell>
        <mxCell id="4csE3fcNhFdNQlbhWUd2-3" value="5. Solicita" style="ellipse;whiteSpace=wrap;html=1;aspect=fixed;" vertex="1" parent="1">
          <mxGeometry x="260" y="110" width="80" height="80" as="geometry" />
        </mxCell>
        <mxCell id="4csE3fcNhFdNQlbhWUd2-9" style="edgeStyle=orthogonalEdgeStyle;shape=connector;curved=1;rounded=0;orthogonalLoop=1;jettySize=auto;html=1;exitX=1;exitY=0.25;exitDx=0;exitDy=0;entryX=1;entryY=1;entryDx=0;entryDy=0;strokeColor=default;align=center;verticalAlign=middle;fontFamily=Helvetica;fontSize=11;fontColor=default;labelBackgroundColor=default;endArrow=classic;" edge="1" parent="1" source="4csE3fcNhFdNQlbhWUd2-4" target="4csE3fcNhFdNQlbhWUd2-3">
          <mxGeometry relative="1" as="geometry" />
        </mxCell>
        <mxCell id="4csE3fcNhFdNQlbhWUd2-11" value="Medicamentos" style="edgeLabel;html=1;align=center;verticalAlign=middle;resizable=0;points=[];fontFamily=Helvetica;fontSize=11;fontColor=default;labelBackgroundColor=default;" vertex="1" connectable="0" parent="4csE3fcNhFdNQlbhWUd2-9">
          <mxGeometry x="-0.3267" y="19" relative="1" as="geometry">
            <mxPoint as="offset" />
          </mxGeometry>
        </mxCell>
        <mxCell id="4csE3fcNhFdNQlbhWUd2-13" style="edgeStyle=orthogonalEdgeStyle;shape=connector;curved=1;rounded=0;orthogonalLoop=1;jettySize=auto;html=1;exitX=1;exitY=0.75;exitDx=0;exitDy=0;strokeColor=default;align=center;verticalAlign=middle;fontFamily=Helvetica;fontSize=11;fontColor=default;labelBackgroundColor=default;endArrow=classic;" edge="1" parent="1" source="4csE3fcNhFdNQlbhWUd2-4" target="4csE3fcNhFdNQlbhWUd2-12">
          <mxGeometry relative="1" as="geometry" />
        </mxCell>
        <mxCell id="4csE3fcNhFdNQlbhWUd2-15" value="Carnet" style="edgeLabel;html=1;align=center;verticalAlign=middle;resizable=0;points=[];fontFamily=Helvetica;fontSize=11;fontColor=default;labelBackgroundColor=default;" vertex="1" connectable="0" parent="4csE3fcNhFdNQlbhWUd2-13">
          <mxGeometry x="-0.2613" y="-10" relative="1" as="geometry">
            <mxPoint as="offset" />
          </mxGeometry>
        </mxCell>
        <mxCell id="4csE3fcNhFdNQlbhWUd2-4" value="Cliente" style="rounded=0;whiteSpace=wrap;html=1;" vertex="1" parent="1">
          <mxGeometry x="100" y="260" width="120" height="60" as="geometry" />
        </mxCell>
        <mxCell id="4csE3fcNhFdNQlbhWUd2-5" style="edgeStyle=orthogonalEdgeStyle;rounded=0;orthogonalLoop=1;jettySize=auto;html=1;exitX=0.5;exitY=1;exitDx=0;exitDy=0;curved=1;" edge="1" parent="1" source="4csE3fcNhFdNQlbhWUd2-2" target="4csE3fcNhFdNQlbhWUd2-4">
          <mxGeometry relative="1" as="geometry" />
        </mxCell>
        <mxCell id="4csE3fcNhFdNQlbhWUd2-6" value="Pedido" style="edgeLabel;html=1;align=center;verticalAlign=middle;resizable=0;points=[];" vertex="1" connectable="0" parent="4csE3fcNhFdNQlbhWUd2-5">
          <mxGeometry x="-0.0163" y="4" relative="1" as="geometry">
            <mxPoint as="offset" />
          </mxGeometry>
        </mxCell>
        <mxCell id="4csE3fcNhFdNQlbhWUd2-14" style="edgeStyle=orthogonalEdgeStyle;shape=connector;curved=1;rounded=0;orthogonalLoop=1;jettySize=auto;html=1;exitX=0;exitY=0.5;exitDx=0;exitDy=0;entryX=0.5;entryY=1;entryDx=0;entryDy=0;strokeColor=default;align=center;verticalAlign=middle;fontFamily=Helvetica;fontSize=11;fontColor=default;labelBackgroundColor=default;endArrow=classic;" edge="1" parent="1" source="4csE3fcNhFdNQlbhWUd2-12" target="4csE3fcNhFdNQlbhWUd2-4">
          <mxGeometry relative="1" as="geometry" />
        </mxCell>
        <mxCell id="4csE3fcNhFdNQlbhWUd2-16" value="Ticket" style="edgeLabel;html=1;align=center;verticalAlign=middle;resizable=0;points=[];fontFamily=Helvetica;fontSize=11;fontColor=default;labelBackgroundColor=default;" vertex="1" connectable="0" parent="4csE3fcNhFdNQlbhWUd2-14">
          <mxGeometry x="-0.2415" y="-20" relative="1" as="geometry">
            <mxPoint as="offset" />
          </mxGeometry>
        </mxCell>
        <mxCell id="4csE3fcNhFdNQlbhWUd2-12" value="6. Entrega" style="ellipse;whiteSpace=wrap;html=1;aspect=fixed;" vertex="1" parent="1">
          <mxGeometry x="320" y="390" width="80" height="80" as="geometry" />
        </mxCell>
      </root>
    </mxGraphModel>
  </diagram>
  <diagram id="8bPWiTlcKolvTdHzhJPU" name="Página-3">
    <mxGraphModel grid="1" page="1" gridSize="10" guides="1" tooltips="1" connect="1" arrows="1" fold="1" pageScale="1" pageWidth="827" pageHeight="1169" math="0" shadow="0">
      <root>
        <mxCell id="0" />
        <mxCell id="1" parent="0" />
        <mxCell id="YV-PIig6HxP3eE1vPEk6-2" style="edgeStyle=orthogonalEdgeStyle;shape=connector;curved=1;rounded=0;orthogonalLoop=1;jettySize=auto;html=1;exitX=0;exitY=0.25;exitDx=0;exitDy=0;strokeColor=default;align=center;verticalAlign=middle;fontFamily=Helvetica;fontSize=11;fontColor=default;labelBackgroundColor=default;endArrow=classic;entryX=0.5;entryY=0;entryDx=0;entryDy=0;" edge="1" parent="1" source="YV-PIig6HxP3eE1vPEk6-7" target="YV-PIig6HxP3eE1vPEk6-4">
          <mxGeometry relative="1" as="geometry">
            <mxPoint x="220" y="190" as="targetPoint" />
          </mxGeometry>
        </mxCell>
        <mxCell id="YV-PIig6HxP3eE1vPEk6-3" value="Sueldo" style="edgeLabel;html=1;align=center;verticalAlign=middle;resizable=0;points=[];fontFamily=Helvetica;fontSize=11;fontColor=default;labelBackgroundColor=default;" connectable="0" vertex="1" parent="YV-PIig6HxP3eE1vPEk6-2">
          <mxGeometry x="0.0704" y="2" relative="1" as="geometry">
            <mxPoint as="offset" />
          </mxGeometry>
        </mxCell>
        <mxCell id="YV-PIig6HxP3eE1vPEk6-4" value="1. Controla" style="ellipse;whiteSpace=wrap;html=1;aspect=fixed;" vertex="1" parent="1">
          <mxGeometry x="80" y="215" width="80" height="80" as="geometry" />
        </mxCell>
        <mxCell id="YV-PIig6HxP3eE1vPEk6-21" style="edgeStyle=orthogonalEdgeStyle;shape=connector;curved=1;rounded=0;orthogonalLoop=1;jettySize=auto;html=1;exitX=0;exitY=0.5;exitDx=0;exitDy=0;entryX=0.5;entryY=0;entryDx=0;entryDy=0;strokeColor=default;align=center;verticalAlign=middle;fontFamily=Helvetica;fontSize=11;fontColor=default;labelBackgroundColor=default;endArrow=classic;" edge="1" parent="1" source="YV-PIig6HxP3eE1vPEk6-5" target="YV-PIig6HxP3eE1vPEk6-20">
          <mxGeometry relative="1" as="geometry" />
        </mxCell>
        <mxCell id="YV-PIig6HxP3eE1vPEk6-5" value="2. Carga" style="ellipse;whiteSpace=wrap;html=1;aspect=fixed;" vertex="1" parent="1">
          <mxGeometry x="190" y="30" width="80" height="80" as="geometry" />
        </mxCell>
        <mxCell id="YV-PIig6HxP3eE1vPEk6-27" style="edgeStyle=orthogonalEdgeStyle;shape=connector;curved=1;rounded=0;orthogonalLoop=1;jettySize=auto;html=1;exitX=0;exitY=0.5;exitDx=0;exitDy=0;entryX=0.5;entryY=0;entryDx=0;entryDy=0;strokeColor=default;align=center;verticalAlign=middle;fontFamily=Helvetica;fontSize=11;fontColor=default;labelBackgroundColor=default;endArrow=classic;" edge="1" parent="1" source="YV-PIig6HxP3eE1vPEk6-6" target="YV-PIig6HxP3eE1vPEk6-26">
          <mxGeometry relative="1" as="geometry" />
        </mxCell>
        <mxCell id="YV-PIig6HxP3eE1vPEk6-6" value="4. Realiza" style="ellipse;whiteSpace=wrap;html=1;aspect=fixed;" vertex="1" parent="1">
          <mxGeometry x="205.97" y="332.71" width="80" height="80" as="geometry" />
        </mxCell>
        <mxCell id="YV-PIig6HxP3eE1vPEk6-22" style="edgeStyle=orthogonalEdgeStyle;shape=connector;curved=1;rounded=0;orthogonalLoop=1;jettySize=auto;html=1;exitX=1;exitY=0.25;exitDx=0;exitDy=0;entryX=0.5;entryY=0;entryDx=0;entryDy=0;strokeColor=default;align=center;verticalAlign=middle;fontFamily=Helvetica;fontSize=11;fontColor=default;labelBackgroundColor=default;endArrow=classic;" edge="1" parent="1" source="YV-PIig6HxP3eE1vPEk6-7" target="YV-PIig6HxP3eE1vPEk6-8">
          <mxGeometry relative="1" as="geometry" />
        </mxCell>
        <mxCell id="YV-PIig6HxP3eE1vPEk6-23" value="Medicamento" style="edgeLabel;html=1;align=center;verticalAlign=middle;resizable=0;points=[];fontFamily=Helvetica;fontSize=11;fontColor=default;labelBackgroundColor=default;" connectable="0" vertex="1" parent="YV-PIig6HxP3eE1vPEk6-22">
          <mxGeometry x="-0.362" y="-2" relative="1" as="geometry">
            <mxPoint as="offset" />
          </mxGeometry>
        </mxCell>
        <mxCell id="YV-PIig6HxP3eE1vPEk6-24" style="edgeStyle=orthogonalEdgeStyle;shape=connector;curved=1;rounded=0;orthogonalLoop=1;jettySize=auto;html=1;exitX=0.75;exitY=1;exitDx=0;exitDy=0;entryX=1;entryY=0.5;entryDx=0;entryDy=0;strokeColor=default;align=center;verticalAlign=middle;fontFamily=Helvetica;fontSize=11;fontColor=default;labelBackgroundColor=default;endArrow=classic;" edge="1" parent="1" source="YV-PIig6HxP3eE1vPEk6-7" target="YV-PIig6HxP3eE1vPEk6-6">
          <mxGeometry relative="1" as="geometry" />
        </mxCell>
        <mxCell id="YV-PIig6HxP3eE1vPEk6-25" value="Reporte diario" style="edgeLabel;html=1;align=center;verticalAlign=middle;resizable=0;points=[];fontFamily=Helvetica;fontSize=11;fontColor=default;labelBackgroundColor=default;" connectable="0" vertex="1" parent="YV-PIig6HxP3eE1vPEk6-24">
          <mxGeometry x="0.1067" y="-2" relative="1" as="geometry">
            <mxPoint as="offset" />
          </mxGeometry>
        </mxCell>
        <mxCell id="YV-PIig6HxP3eE1vPEk6-7" value="Gerente" style="rounded=0;whiteSpace=wrap;html=1;" vertex="1" parent="1">
          <mxGeometry x="224" y="215" width="120" height="60" as="geometry" />
        </mxCell>
        <mxCell id="YV-PIig6HxP3eE1vPEk6-8" value="3. Verifica" style="ellipse;whiteSpace=wrap;html=1;aspect=fixed;" vertex="1" parent="1">
          <mxGeometry x="420" y="275" width="80" height="80" as="geometry" />
        </mxCell>
        <mxCell id="YV-PIig6HxP3eE1vPEk6-9" style="edgeStyle=orthogonalEdgeStyle;shape=connector;curved=1;rounded=0;orthogonalLoop=1;jettySize=auto;html=1;exitX=0;exitY=0.25;exitDx=0;exitDy=0;strokeColor=default;align=center;verticalAlign=middle;fontFamily=Helvetica;fontSize=11;fontColor=default;labelBackgroundColor=default;endArrow=classic;entryX=0.5;entryY=0;entryDx=0;entryDy=0;" edge="1" parent="1" source="YV-PIig6HxP3eE1vPEk6-14" target="YV-PIig6HxP3eE1vPEk6-11">
          <mxGeometry relative="1" as="geometry">
            <mxPoint x="464" y="530" as="targetPoint" />
          </mxGeometry>
        </mxCell>
        <mxCell id="YV-PIig6HxP3eE1vPEk6-10" value="Venta" style="edgeLabel;html=1;align=center;verticalAlign=middle;resizable=0;points=[];fontFamily=Helvetica;fontSize=11;fontColor=default;labelBackgroundColor=default;" connectable="0" vertex="1" parent="YV-PIig6HxP3eE1vPEk6-9">
          <mxGeometry x="0.0704" y="2" relative="1" as="geometry">
            <mxPoint as="offset" />
          </mxGeometry>
        </mxCell>
        <mxCell id="YV-PIig6HxP3eE1vPEk6-11" value="11. Registra" style="ellipse;whiteSpace=wrap;html=1;aspect=fixed;" vertex="1" parent="1">
          <mxGeometry x="324" y="555" width="80" height="80" as="geometry" />
        </mxCell>
        <mxCell id="YV-PIig6HxP3eE1vPEk6-13" value="13. Controla" style="ellipse;whiteSpace=wrap;html=1;aspect=fixed;" vertex="1" parent="1">
          <mxGeometry x="650" y="545" width="80" height="80" as="geometry" />
        </mxCell>
        <mxCell id="YV-PIig6HxP3eE1vPEk6-16" style="edgeStyle=orthogonalEdgeStyle;rounded=0;orthogonalLoop=1;jettySize=auto;html=1;exitX=0.5;exitY=1;exitDx=0;exitDy=0;entryX=0;entryY=0.75;entryDx=0;entryDy=0;curved=1;" edge="1" parent="1" source="YV-PIig6HxP3eE1vPEk6-11" target="YV-PIig6HxP3eE1vPEk6-14">
          <mxGeometry relative="1" as="geometry" />
        </mxCell>
        <mxCell id="YV-PIig6HxP3eE1vPEk6-17" value="Medicamento" style="edgeLabel;html=1;align=center;verticalAlign=middle;resizable=0;points=[];fontFamily=Helvetica;fontSize=11;fontColor=default;labelBackgroundColor=default;" connectable="0" vertex="1" parent="YV-PIig6HxP3eE1vPEk6-16">
          <mxGeometry x="-0.1876" y="2" relative="1" as="geometry">
            <mxPoint as="offset" />
          </mxGeometry>
        </mxCell>
        <mxCell id="YV-PIig6HxP3eE1vPEk6-28" style="edgeStyle=orthogonalEdgeStyle;shape=connector;curved=1;rounded=0;orthogonalLoop=1;jettySize=auto;html=1;exitX=1;exitY=0.25;exitDx=0;exitDy=0;entryX=0.5;entryY=0;entryDx=0;entryDy=0;strokeColor=default;align=center;verticalAlign=middle;fontFamily=Helvetica;fontSize=11;fontColor=default;labelBackgroundColor=default;endArrow=classic;" edge="1" parent="1" source="YV-PIig6HxP3eE1vPEk6-14" target="YV-PIig6HxP3eE1vPEk6-13">
          <mxGeometry relative="1" as="geometry">
            <Array as="points">
              <mxPoint x="619" y="570" />
              <mxPoint x="619" y="470" />
              <mxPoint x="690" y="470" />
            </Array>
          </mxGeometry>
        </mxCell>
        <mxCell id="YV-PIig6HxP3eE1vPEk6-29" value="Vencimiento" style="edgeLabel;html=1;align=center;verticalAlign=middle;resizable=0;points=[];fontFamily=Helvetica;fontSize=11;fontColor=default;labelBackgroundColor=default;" connectable="0" vertex="1" parent="YV-PIig6HxP3eE1vPEk6-28">
          <mxGeometry x="-0.3793" y="2" relative="1" as="geometry">
            <mxPoint as="offset" />
          </mxGeometry>
        </mxCell>
        <mxCell id="YV-PIig6HxP3eE1vPEk6-14" value="Farmaceutico" style="rounded=0;whiteSpace=wrap;html=1;" vertex="1" parent="1">
          <mxGeometry x="468" y="555" width="120" height="60" as="geometry" />
        </mxCell>
        <mxCell id="YV-PIig6HxP3eE1vPEk6-18" style="edgeStyle=orthogonalEdgeStyle;shape=connector;curved=1;rounded=0;orthogonalLoop=1;jettySize=auto;html=1;exitX=0.817;exitY=-0.039;exitDx=0;exitDy=0;entryX=1;entryY=0.5;entryDx=0;entryDy=0;strokeColor=default;align=center;verticalAlign=middle;fontFamily=Helvetica;fontSize=11;fontColor=default;labelBackgroundColor=default;endArrow=classic;exitPerimeter=0;" edge="1" parent="1" source="YV-PIig6HxP3eE1vPEk6-7" target="YV-PIig6HxP3eE1vPEk6-5">
          <mxGeometry relative="1" as="geometry" />
        </mxCell>
        <mxCell id="YV-PIig6HxP3eE1vPEk6-19" value="Horario" style="edgeLabel;html=1;align=center;verticalAlign=middle;resizable=0;points=[];fontFamily=Helvetica;fontSize=11;fontColor=default;labelBackgroundColor=default;" connectable="0" vertex="1" parent="YV-PIig6HxP3eE1vPEk6-18">
          <mxGeometry x="-0.1348" y="1" relative="1" as="geometry">
            <mxPoint as="offset" />
          </mxGeometry>
        </mxCell>
        <mxCell id="YV-PIig6HxP3eE1vPEk6-20" value="Planilla horaria" style="shape=partialRectangle;whiteSpace=wrap;html=1;left=0;right=0;fillColor=none;fontFamily=Helvetica;fontSize=11;fontColor=default;labelBackgroundColor=default;" vertex="1" parent="1">
          <mxGeometry x="100" y="130" width="90" height="30" as="geometry" />
        </mxCell>
        <mxCell id="YV-PIig6HxP3eE1vPEk6-26" value="Planilla de reporte" style="shape=partialRectangle;whiteSpace=wrap;html=1;left=0;right=0;fillColor=none;fontFamily=Helvetica;fontSize=11;fontColor=default;labelBackgroundColor=default;" vertex="1" parent="1">
          <mxGeometry x="111.97" y="412.71" width="90" height="30" as="geometry" />
        </mxCell>
        <mxCell id="YV-PIig6HxP3eE1vPEk6-47" style="edgeStyle=orthogonalEdgeStyle;shape=connector;curved=1;rounded=0;orthogonalLoop=1;jettySize=auto;html=1;exitX=0.5;exitY=0;exitDx=0;exitDy=0;strokeColor=default;align=center;verticalAlign=middle;fontFamily=Helvetica;fontSize=11;fontColor=default;labelBackgroundColor=default;endArrow=classic;entryX=0.5;entryY=0;entryDx=0;entryDy=0;" edge="1" parent="1" source="YV-PIig6HxP3eE1vPEk6-55" target="YV-PIig6HxP3eE1vPEk6-49">
          <mxGeometry relative="1" as="geometry">
            <mxPoint x="484" y="700.04" as="targetPoint" />
          </mxGeometry>
        </mxCell>
        <mxCell id="YV-PIig6HxP3eE1vPEk6-48" value="Medicamento" style="edgeLabel;html=1;align=center;verticalAlign=middle;resizable=0;points=[];fontFamily=Helvetica;fontSize=11;fontColor=default;labelBackgroundColor=default;" connectable="0" vertex="1" parent="YV-PIig6HxP3eE1vPEk6-47">
          <mxGeometry x="0.0704" y="2" relative="1" as="geometry">
            <mxPoint as="offset" />
          </mxGeometry>
        </mxCell>
        <mxCell id="YV-PIig6HxP3eE1vPEk6-49" value="Entrega" style="ellipse;whiteSpace=wrap;html=1;aspect=fixed;" vertex="1" parent="1">
          <mxGeometry x="344" y="725.04" width="80" height="80" as="geometry" />
        </mxCell>
        <mxCell id="YV-PIig6HxP3eE1vPEk6-55" value="Drogueria" style="rounded=0;whiteSpace=wrap;html=1;" vertex="1" parent="1">
          <mxGeometry x="540" y="725.04" width="120" height="60" as="geometry" />
        </mxCell>
        <mxCell id="YV-PIig6HxP3eE1vPEk6-57" style="edgeStyle=orthogonalEdgeStyle;shape=connector;curved=1;rounded=0;orthogonalLoop=1;jettySize=auto;html=1;strokeColor=default;align=center;verticalAlign=middle;fontFamily=Helvetica;fontSize=11;fontColor=default;labelBackgroundColor=default;endArrow=classic;entryX=0.469;entryY=0.985;entryDx=0;entryDy=0;entryPerimeter=0;exitX=0.5;exitY=1;exitDx=0;exitDy=0;" edge="1" parent="1" source="YV-PIig6HxP3eE1vPEk6-49" target="YV-PIig6HxP3eE1vPEk6-55">
          <mxGeometry relative="1" as="geometry">
            <mxPoint x="383.9999999999999" y="840" as="targetPoint" />
          </mxGeometry>
        </mxCell>
        <mxCell id="YV-PIig6HxP3eE1vPEk6-58" value="Remito" style="edgeLabel;html=1;align=center;verticalAlign=middle;resizable=0;points=[];fontFamily=Helvetica;fontSize=11;fontColor=default;labelBackgroundColor=default;" connectable="0" vertex="1" parent="YV-PIig6HxP3eE1vPEk6-57">
          <mxGeometry x="-0.2247" y="7" relative="1" as="geometry">
            <mxPoint as="offset" />
          </mxGeometry>
        </mxCell>
      </root>
    </mxGraphModel>
  </diagram>
</mxfile>
